PathFileType	4	(X/Y/Z)	C:/Users/beibeiliu/ov580/test_trc\sequence.32_training_dense_left.trc
DataRate	CameraRate	NumFrames	NumMarkers	Units	OrigDataRate	OrigDataStartFrame	OrigNumFrames
120	120	18	19	mm	120	176	200
Frame#	Time	ThumbCMC			ThumbMCP			ThumbIP			ThumbTip			IndexMCP			IndexPIP			IndexTip			MiddleMCP			MiddlePIP			MiddleTip			RingMCP			RingPIP			RingTip			PinkyMCP			PinkyPIP			PinkyTip			BackHand1			BackHand2			BackHand3	
		X0	Y0	Z0	X1	Y1	Z1	X2	Y2	Z2	X3	Y3	Z3	X4	Y4	Z4	X5	Y5	Z5	X6	Y6	Z6	X7	Y7	Z7	X8	Y8	Z8	X9	Y9	Z9	X10	Y10	Z10	X11	Y11	Z11	X12	Y12	Z12	X13	Y13	Z13	X14	Y14	Z14	X15	Y15	Z15	X16	Y16	Z16	X17	Y17	Z17	X18	Y18	Z18	
175	1.45833	-139.161	39.2531	24.4766	-118.132	30.4848	3.26841	-108.927	26.6923	-16.1669	-95.0658	21.1881	-30.4017	-133.194	47.5028	-42.7827	-122.512	33.5485	-59.2728	-117.763	10.1216	-72.6834	-159.023	53.9166	-53.5867	-156.19	50.5645	-74.23	-151.851	45.4095	-102.179	-173.805	39.1427	-51.0033	-162.909	20.5746	-67.7071	-155.551	0.170422	-69.6791	-199.431	40.6235	-39.4056	-199.147	39.5318	-55.3242	-203.948	44.043	-73.6325	-182.693	54.4508	-0.563339	-185.113	54.4531	21.2259	-159.003	60.3568	14.3872	
176	1.46667	-136.492	39.9247	20.1835	-117.47	30.4208	2.9198	-107.082	26.702	-15.3568	-95.4014	22.565	-30.3155	-132.487	47.9977	-42.8623	-125.978	28.3298	-62.7731	-120.877	7.89364	-70.0756	-157.961	54.4252	-53.8481	-153.035	52.0948	-73.1104	-150.821	52.6295	-101.422	-172.939	37.6776	-51.0067	-165.36	17.6404	-66.2325	-151.269	-7.15991	-61.3417	-192.963	42.7465	-40.441	-199	40.1549	-59.6112	-201.675	44.1423	-75.4159	-183.531	55.4609	-2.91173	-186.394	54.8598	20.5466	-156.926	62.1565	11.2656	
177	1.475	-133.418	40.9798	23.4381	-116.346	30.6011	3.5436	-107.147	27.5822	-13.2476	-95.9651	24.0024	-33.1729	-127.876	47.0506	-44.786	-124.99	28.5748	-61.2063	-120.95	1.12005	-66.2637	-156.514	54.538	-50.676	-152.89	51.4803	-77.1397	-152.092	49.7757	-98.9215	-168.391	39.3888	-51.6073	-164.211	18.4136	-64.5959	-151.604	-7.82916	-58.1025	-195.838	42.0933	-36.0167	-198.022	41.802	-55.9408	-201.902	46.1923	-75.8734	-182.195	57.5994	-6.27094	-188.257	54.3811	22.9694	-159.07	62.8476	13.6417	
178	1.48333	-133.364	38.9301	24.8012	-121.297	29.9457	3.69777	-103.824	25.4053	-13.7145	-94.0278	19.7622	-28.101	-128.73	45.0584	-39.5163	-127.042	25.206	-59.3011	-123.202	-4.83998	-62.136	-150.923	53.8651	-53.264	-148.32	47.5553	-76.2921	-147.209	42.0056	-99.0742	-169.517	42.6775	-48.7149	-167.173	19.3039	-66.6381	-154.023	-3.17171	-61.9199	-196.877	44.442	-37.0991	-196.078	44.4367	-51.794	-200.629	50.7496	-71.1634	-182.857	56.2816	-3.7215	-182.818	57.7214	22.1934	-155.476	62.4985	15.408	
179	1.49167	-135.539	35.5695	28.9491	-120.638	25.7032	11.4843	-108.315	21.9574	-10.9041	-99.1381	16.4791	-24.7606	-129.471	40.0677	-41.4773	-123.815	23.3215	-54.6355	-129.976	-3.00551	-60.3907	-151.369	51.3057	-47.5479	-148.634	43.9388	-71.0278	-147.992	29.3524	-94.6227	-176.763	46.2622	-44.8577	-169.892	33.6397	-67.1105	-161.303	7.04091	-73.3884	-199.048	45.7254	-33.007	-200.605	48.8065	-49.8555	-207.234	54.9536	-64.179	-182.62	55.0317	1.79143	-182.701	54.5142	27.5752	-157.448	59.2137	18.8869	
180	1.5	-138.064	31.8271	28.8317	-121.871	21.1907	13.3708	-106.47	17.6946	-10.8146	-100.075	12.0461	-28.6494	-135.05	39.1528	-36.9104	-130.478	17.2932	-56.1147	-129.449	-8.42368	-60.0697	-151.211	45.8812	-48.933	-148.198	32.7575	-72.9651	-148.031	9.10871	-87.7327	-178.916	50.8156	-44.3507	-173.694	46.4337	-64.2264	-170.757	28.6118	-85.8241	-197.032	47.3975	-28.6647	-203.248	52.5614	-41.6882	-210.795	62.0683	-54.5825	-178.424	53.8169	2.6903	-185.33	55.6258	25.4311	-160.244	53.7276	19.2028	
181	1.50833	-140.288	32.1312	27.1904	-119.14	21.6515	9.4526	-108.185	17.4464	-7.35399	-99.6438	12.1563	-27.2185	-131.523	37.2638	-40.2066	-129.84	20.9552	-54.8521	-128.283	-9.16614	-62.2884	-154.466	44.4935	-47.6423	-148.21	29.1278	-68.8622	-151.873	-4.22436	-77.2057	-180.942	49.9095	-39.1294	-177.189	50.1283	-67.1343	-175.242	44.1065	-85.4162	-201.221	46.0931	-22.559	-203.344	56.4916	-41.1369	-213.412	68.306	-50.5431	-179.939	53.9122	3.08751	-187.021	53.1741	29.1842	-160.274	55.8196	15.0151	
182	1.51667	-141.602	32.8932	29.5161	-120.781	22.7593	9.1397	-108.06	18.2977	-10.6623	-100.128	12.6494	-25.5944	-131.69	41.5182	-37.8287	-126.356	25.676	-55.9595	-124.644	-0.783644	-69.0931	-153.053	44.6742	-48.6207	-150.554	21.6305	-70.824	-152.794	-4.46619	-69.5471	-175.193	51.9881	-44.1086	-177.078	52.2831	-66.4371	-177.909	49.9907	-90.1664	-199.927	49.7242	-25.8086	-207.706	55.7005	-36.0079	-214.61	70.0496	-50.0308	-182.944	53.4739	2.12779	-185.987	55.0961	28.915	-159.747	56.3707	17.3554	
183	1.525	-141.774	34.93	27.2335	-120.578	23.1359	9.19868	-108.766	19.3912	-9.72236	-104.603	14.4831	-30.0457	-133.321	44.5372	-40.8232	-122.088	28.6366	-60.6375	-118.547	11.9498	-73.5896	-156.486	45.6388	-47.4316	-150.512	20.7342	-70.227	-151.697	-8.48662	-62.6768	-177.798	51.7223	-42.5168	-179.739	52.9701	-67.1617	-175.954	51.1291	-86.7801	-199.916	48.3882	-24.2564	-203.839	57.2619	-40.3106	-209.951	70.3767	-46.7062	-180.012	54.0085	4.33159	-189.025	56.2761	27.0023	-160.834	57.305	18.7209	
184	1.53333	-139.229	35.602	25.3175	-121.145	23.0107	9.75331	-111.575	18.858	-9.87872	-103.377	13.4229	-25.0714	-135.816	48.2692	-38.6741	-127.162	39.8317	-58.334	-123.006	28.4846	-78.92	-156.66	42.8607	-51.5285	-148.228	23.8042	-68.3307	-148.684	-7.34819	-61.0336	-180.154	51.1596	-45.4672	-177.405	50.8425	-65.7225	-176.701	49.2831	-89.4361	-200.231	48.2129	-26.4729	-203.884	56.5344	-40.1862	-214.031	66.9232	-47.7593	-182.903	53.9214	2.18283	-187.483	52.4478	27.7324	-160.552	57.5637	16.0293	
185	1.54167	-140.508	35.5256	26.6065	-122.196	24.751	8.62449	-109.662	20.7856	-10.9491	-103.884	14.5063	-28.4074	-139.597	53.4118	-40.3664	-135.158	50.4852	-59.4974	-130.959	46.2499	-81.3002	-154.548	44.3961	-49.3633	-151.704	21.7916	-66.5963	-149.265	-7.37042	-56.8661	-179.842	47.5875	-41.1668	-176.636	48.692	-63.3416	-174.984	44.1264	-87.0931	-197.313	43.4609	-24.3255	-207.895	53.0572	-40.916	-212.612	63.2366	-49.8487	-184.174	52.7609	2.46705	-187.004	51.9852	25.1158	-161.524	57.4597	16.1079	
186	1.55	-139.215	39.4782	27.9576	-121.867	27.9619	8.99769	-107.639	23.0532	-7.84044	-101.648	17.4676	-24.2884	-146.315	56.7323	-35.4532	-143.373	59.7967	-62.5621	-141.914	61.0018	-79.3048	-161.613	43.9507	-46.2985	-150.158	19.8921	-65.9114	-146.608	-7.50322	-54.4058	-179.476	47.2992	-45.3622	-180.39	45.0303	-67.4012	-177.185	39.2139	-90.2147	-204.398	41.7482	-26.7376	-205.658	48.9068	-40.157	-212.582	62.4864	-53.6451	-191.555	49.1287	3.40807	-191.908	52.3905	25.8352	-164.355	58.1096	19.6101	
187	1.55833	-145.324	41.2074	26.8503	-126.203	32.0709	9.50567	-109.46	28.4451	-8.89719	-99.9635	24.6219	-25.9553	-151.804	61.3599	-37.565	-149.578	65.8069	-55.4385	-151.674	70.8005	-81.1496	-159.175	44.781	-49.4037	-153.379	21.5335	-66.2977	-144.95	-4.47556	-54.9726	-180.066	46.3943	-45.3275	-177.663	42.4986	-66.6968	-175.799	35.6755	-85.6036	-205.462	38.9579	-27.2856	-210.503	44.7859	-41.5427	-216.6	54.5037	-55.7578	-187.363	49.5053	0.216912	-195.638	48.4757	25.1463	-171.135	59.2336	15.0316	
188	1.56667	-144.76	44.6679	26.6749	-123.936	36.5698	8.26451	-110.114	34.5993	-10.0887	-102	29.3965	-28.7618	-154.773	63.6768	-35.6379	-154.05	68.6193	-55.6001	-158.662	72.2197	-79.9001	-166.939	44.4576	-46.2772	-153.143	24.5314	-66.3526	-139.818	-5.23915	-54.1711	-185.602	41.5333	-45.0008	-181.793	35.6097	-68.2597	-172.766	25.6856	-87.487	-204.844	36.063	-30.6269	-211.359	36.9025	-42.6621	-218.791	41.9944	-58.6646	-195.28	48.6465	-0.850097	-197.119	48.1401	29.2257	-173.144	60.6022	13.8693	
189	1.575	-146.41	46.0492	25.4419	-129.631	38.1163	6.45	-111.244	36.7626	-7.8962	-99.6281	33.0102	-27.9165	-155.74	64.4595	-32.7692	-157.095	70.1434	-57.8099	-157.022	71.7321	-80.4337	-167.785	45.9156	-47.3602	-158.238	27.2641	-69.481	-143.715	-2.18468	-63.5664	-183.432	38.9792	-46.1888	-181.148	26.9826	-70.3471	-168.808	15.2265	-86.2248	-206.699	28.8856	-31.9041	-207.496	27.6789	-47.3428	-213.831	27.5866	-67.935	-194.239	47.6146	4.24651	-199.696	47.2108	29.224	-173.037	58.6033	16.0945	
190	1.58333	-145.044	46.7255	25.6279	-125.603	39.1267	6.18754	-110.752	38.1671	-10.0768	-99.7775	34.5454	-26.5478	-158.396	60.9635	-33.1717	-161.076	64.5949	-58.6854	-154.267	62.1481	-86.0841	-170.898	46.4776	-48.7349	-159.155	32.8114	-74.5941	-148.228	5.77439	-78.275	-188.383	31.2163	-43.4619	-178.184	23.9839	-67.2687	-168.596	6.84801	-83.0098	-202.635	20.5864	-29.6904	-202.941	14.6454	-51.56	-202.309	7.78101	-73.2173	-196.982	40.8318	-1.95454	-200.636	42.6846	23.8523	-174.41	57.4144	17.9709	
191	1.59167	-148.639	45.1341	22.4239	-127.983	38.9226	9.82418	-113.784	37.6304	-6.61605	-103.534	33.2483	-27.4085	-159.125	59.6646	-37.01	-157.599	62.5313	-64.4558	-150.427	49.8589	-85.6685	-174.551	48.4268	-48.3679	-170.945	40.0667	-75.4216	-155.359	14.9887	-90.4155	-185.907	35.2032	-46.7042	-182.624	23.17	-69.7539	-171.67	7.85283	-83.8516	-199.083	17.0346	-34.5094	-197.595	6.56647	-51.9444	-183.983	-6.27644	-68.3135	-198.234	41.3325	-1.62508	-200.776	42.6735	22.7802	-178.707	53.9639	15.8057	
192	1.6	-145.962	45.563	25.3541	-126.019	40.2755	7.9328	-114.415	37.9609	-10.3294	-99.4184	32.4174	-28.5051	-158.231	60.0187	-41.0728	-156.942	55.4521	-65.0138	-140.088	37.1192	-83.3672	-177.487	50.0478	-45.6044	-176.664	44.6628	-75.0167	-166.151	26.8517	-96.0029	-191.172	34.685	-45.9131	-186.321	27.4969	-70.9277	-171.384	13.7281	-86.4063	-201.896	13.2655	-34.5202	-193.73	1.33485	-50.8849	-177.022	-13.37	-60.4346	-197.913	40.9278	1.32494	-198.144	43.5067	27.8931	-176.704	54.9706	15.0901	
